<?xml version="1.0" standalone="no"?>
<!DOCTYPE svg PUBLIC "-//W3C//DTD SVG 20010904//EN"
 "http://www.w3.org/TR/2001/REC-SVG-20010904/DTD/svg10.dtd">
<svg version="1.0" xmlns="http://www.w3.org/2000/svg"
 width="383.000000pt" height="132.000000pt" viewBox="0 0 383.000000 132.000000"
 preserveAspectRatio="xMidYMid meet">

<g transform="translate(0.000000,132.000000) scale(0.100000,-0.100000)"
fill="#000000" stroke="none">
<path d="M1238 1280 c-36 -15 -93 -30 -127 -33 -109 -12 -203 -37 -208 -57 -5
-20 -52 -33 -69 -19 -7 6 -28 2 -58 -11 -87 -37 -120 -95 -76 -135 19 -17 117
-34 210 -35 43 0 44 0 22 16 -13 9 -22 26 -22 40 0 18 -8 27 -27 35 -27 10
-27 11 -8 21 11 6 26 17 32 26 11 14 15 14 31 -1 10 -9 29 -17 42 -17 22 0 22
-1 7 -18 -26 -28 -21 -42 11 -36 15 3 65 8 112 12 l85 7 58 113 c32 63 57 115
55 117 -2 1 -33 -10 -70 -25z"/>
<path d="M1650 1170 c-208 -56 -340 -120 -422 -206 -48 -51 -68 -100 -68 -169
0 -139 102 -218 343 -264 117 -23 344 -28 485 -12 82 10 95 17 69 36 -15 11
-16 13 -2 19 22 8 18 26 -6 26 -18 0 -19 2 -9 15 21 26 2 29 -56 11 -31 -10
-58 -15 -61 -12 -7 6 4 10 63 26 40 10 63 33 44 45 -4 3 -36 -4 -69 -14 -59
-18 -82 -13 -41 9 11 6 20 15 20 20 0 15 -41 11 -70 -5 -51 -29 -346 -12 -460
26 -165 55 -136 175 68 276 88 44 150 51 255 29 74 -15 107 -14 107 5 0 5 -11
11 -25 15 -38 9 -31 28 8 20 87 -18 120 -19 115 -5 -2 8 -20 15 -39 17 -19 2
-38 8 -44 14 -7 7 1 9 28 5 21 -3 45 -3 53 0 27 10 2 23 -47 23 -28 0 -49 5
-49 11 0 6 16 10 38 9 59 -3 74 -1 67 10 -3 6 -28 10 -56 10 -27 0 -49 5 -49
10 0 6 23 10 51 10 31 0 48 4 44 10 -13 21 -176 10 -285 -20z m360 -574 c0 -2
-13 -9 -30 -15 -16 -5 -30 -6 -30 -1 0 5 8 11 18 13 24 7 42 8 42 3z m13 -43
c-7 -2 -21 -2 -30 0 -10 3 -4 5 12 5 17 0 24 -2 18 -5z"/>
<path d="M1010 894 c-104 -29 -279 -59 -463 -78 -76 -8 -140 -16 -141 -17 -12
-15 -294 -514 -292 -516 8 -8 188 76 245 115 40 27 93 52 136 63 199 55 344
112 439 173 50 32 60 45 107 137 57 115 72 150 61 148 -4 -1 -45 -12 -92 -25z
m-30 -66 c0 -4 -5 -10 -10 -13 -6 -3 -7 -17 -4 -29 5 -21 2 -23 -25 -22 -17 1
-31 6 -31 12 0 6 -7 17 -16 25 -14 11 -13 14 10 26 14 8 26 18 26 22 0 5 11 4
25 -2 14 -7 25 -15 25 -19z m-552 -80 c10 -10 17 -10 32 0 18 11 20 10 20 -18
0 -18 6 -33 15 -36 23 -9 18 -24 -8 -24 -13 0 -28 -5 -35 -12 -9 -9 -13 -7
-18 5 -3 9 -17 17 -30 17 -24 0 -32 14 -14 25 6 3 10 17 10 31 0 26 9 31 28
12z m432 -29 c0 -10 5 -21 10 -24 19 -12 10 -25 -19 -25 -21 0 -30 -6 -34 -22
-6 -21 -7 -21 -25 -5 -10 9 -26 17 -35 17 -19 0 -23 15 -7 25 6 3 10 16 10 28
0 20 5 22 50 23 41 0 50 -3 50 -17z m-216 -34 c9 -14 26 -25 39 -26 l22 0 -22
-16 c-13 -8 -23 -22 -23 -29 0 -16 -16 -19 -25 -3 -5 7 -15 5 -31 -6 -23 -15
-24 -15 -24 11 0 15 -8 33 -17 40 -17 13 -17 13 0 14 9 0 25 9 34 20 22 26 27
25 47 -5z"/>
<path d="M1473 911 c-75 -19 -83 -64 -18 -96 56 -28 247 -29 289 -2 38 26 32
57 -18 81 -43 21 -197 31 -253 17z"/>
<path d="M1585 409 c-437 -18 -823 -49 -1056 -84 -124 -19 -125 -19 -109 0 7
8 30 20 51 27 22 6 37 13 35 16 -9 8 -77 -20 -105 -44 -22 -18 -49 -27 -113
-35 -90 -11 -258 -48 -271 -59 -10 -8 53 1 223 34 121 24 126 24 155 6 17 -9
62 -27 101 -38 71 -22 150 -70 161 -98 8 -20 -13 -40 -62 -59 l-40 -15 35 6
c48 8 85 36 85 65 0 35 -73 84 -171 115 -123 38 -122 42 21 63 226 34 467 55
915 81 282 17 931 25 938 13 4 -7 23 -8 47 -4 l40 7 -55 7 c-70 9 -588 6 -825
-4z"/>
<path d="M2508 403 c23 -2 61 -2 85 0 23 2 4 4 -43 4 -47 0 -66 -2 -42 -4z"/>
<path d="M2738 393 c18 -2 45 -2 60 0 15 2 0 4 -33 4 -33 0 -45 -2 -27 -4z"/>
<path d="M2274 366 c-128 -50 -199 -104 -210 -162 -6 -34 -7 -34 -59 -34 -52
0 -52 0 -76 45 -13 25 -28 45 -32 45 -9 0 -4 -10 25 -52 24 -35 23 -38 -12
-38 -21 0 -30 -5 -30 -16 0 -12 3 -14 13 -6 6 6 48 11 91 11 78 1 80 0 114
-36 20 -19 54 -44 76 -54 53 -23 196 -52 233 -46 25 4 25 4 -7 6 -54 2 -156
29 -203 52 -43 22 -97 66 -97 80 0 5 35 10 78 12 l77 3 -82 2 c-81 2 -83 3
-83 26 0 53 70 109 197 156 43 16 71 29 63 29 -8 0 -42 -11 -76 -23z"/>
<path d="M2908 383 c18 -2 45 -2 60 0 15 2 0 4 -33 4 -33 0 -45 -2 -27 -4z"/>
<path d="M533 373 c9 -2 25 -2 35 0 9 3 1 5 -18 5 -19 0 -27 -2 -17 -5z"/>
<path d="M3078 373 c12 -2 30 -2 40 0 9 3 -1 5 -23 4 -22 0 -30 -2 -17 -4z"/>
<path d="M3238 363 c6 -2 18 -2 25 0 6 3 1 5 -13 5 -14 0 -19 -2 -12 -5z"/>
<path d="M3373 353 c9 -2 23 -2 30 0 6 3 -1 5 -18 5 -16 0 -22 -2 -12 -5z"/>
<path d="M3483 343 c9 -2 25 -2 35 0 9 3 1 5 -18 5 -19 0 -27 -2 -17 -5z"/>
<path d="M3578 333 c12 -2 30 -2 40 0 9 3 -1 5 -23 4 -22 0 -30 -2 -17 -4z"/>
<path d="M1209 313 c-1 -5 -2 -30 -3 -58 -1 -49 -2 -50 -36 -56 l-35 -6 35 -4
35 -4 7 -68 c3 -38 9 -71 12 -74 12 -12 26 10 20 33 -7 27 1 31 22 9 40 -39
246 -69 317 -46 42 14 87 63 87 93 0 31 -72 94 -127 112 -26 8 -73 17 -103 20
-36 3 -43 3 -20 -2 38 -8 33 -16 -16 -26 -46 -10 -121 -61 -143 -96 l-18 -31
-7 47 c-3 26 -6 73 -6 105 0 33 -4 59 -10 59 -5 0 -10 -3 -11 -7z m365 -97
c73 -42 87 -110 33 -150 -58 -43 -273 -20 -322 34 -16 18 -16 21 -2 44 9 13
33 34 53 47 89 55 173 63 238 25z"/>
<path d="M1702 163 c2 -105 6 -128 18 -131 13 -2 15 10 13 75 -5 117 -13 183
-24 183 -6 0 -8 -51 -7 -127z"/>
<path d="M958 273 c12 -2 30 -2 40 0 9 3 -1 5 -23 4 -22 0 -30 -2 -17 -4z"/>
<path d="M898 263 c7 -3 16 -2 19 1 4 3 -2 6 -13 5 -11 0 -14 -3 -6 -6z"/>
<path d="M3475 258 c-16 -6 -46 -26 -65 -44 -27 -26 -45 -34 -72 -34 -33 0
-38 4 -49 35 -12 32 -29 48 -29 26 0 -4 -11 -25 -25 -45 -13 -20 -22 -36 -20
-36 2 0 -5 -21 -16 -46 -11 -26 -17 -49 -15 -51 3 -3 12 12 20 33 28 69 28 69
103 71 l70 3 -5 -30 c-2 -17 2 -37 9 -47 21 -25 90 -53 129 -52 l35 1 -42 8
c-52 11 -92 36 -104 67 -15 40 -2 53 55 55 51 1 51 2 8 5 -33 3 -42 8 -40 20
5 28 56 57 98 58 22 0 40 3 40 8 0 10 -49 7 -85 -5z m-195 -69 c0 -5 -7 -9
-15 -9 -15 0 -20 12 -9 23 8 8 24 -1 24 -14z"/>
<path d="M3629 233 c-6 -15 -23 -65 -38 -111 -23 -68 -25 -82 -12 -80 9 2 22
26 31 58 12 42 21 56 40 61 24 7 24 7 3 8 -25 1 -28 8 -14 30 8 12 12 12 25 2
9 -8 16 -20 16 -27 0 -8 6 -14 14 -14 8 0 37 -26 65 -57 59 -66 82 -65 25 2
-21 25 -59 69 -83 98 -24 28 -48 53 -52 55 -5 2 -14 -9 -20 -25z"/>
<path d="M795 231 c-39 -17 -95 -72 -95 -92 0 -34 105 -87 148 -76 12 3 10 5
-6 6 -33 2 -100 38 -112 60 -13 26 24 71 82 99 53 26 38 28 -17 3z"/>
<path d="M1081 234 c0 -11 3 -14 6 -6 3 7 2 16 -1 19 -3 4 -6 -2 -5 -13z"/>
<path d="M2604 230 c-13 -13 6 -182 20 -177 6 2 9 24 7 50 -3 53 5 57 46 24
41 -34 101 -67 121 -67 9 0 -1 11 -24 24 -63 36 -104 68 -104 83 0 7 -9 13
-19 13 -20 0 -35 25 -25 42 13 20 114 -17 114 -42 0 -5 -15 -11 -32 -13 -27
-4 -25 -4 7 -3 33 1 40 5 40 21 0 38 -121 75 -151 45z"/>
<path d="M3003 232 c-8 -5 -9 -21 -2 -56 13 -69 21 -71 13 -4 -6 54 -5 56 17
61 19 3 20 5 4 5 -11 1 -25 -2 -32 -6z"/>
<path d="M2525 196 c22 -52 19 -92 -7 -110 -12 -9 -18 -16 -12 -16 24 0 54 32
53 58 -1 36 -23 95 -37 100 -8 2 -7 -8 3 -32z"/>
<path d="M2384 195 c-9 -35 3 -73 31 -101 36 -35 54 -29 19 7 -23 24 -29 39
-29 75 0 48 -11 58 -21 19z"/>
<path d="M3170 216 c0 -2 8 -10 18 -17 15 -13 16 -12 3 4 -13 16 -21 21 -21
13z"/>
<path d="M1087 192 c-2 -4 0 -25 4 -47 l6 -40 2 37 c1 26 6 38 19 40 14 3 13
5 -5 10 -13 3 -24 3 -26 0z"/>
<path d="M2826 178 c-37 -53 -9 -106 63 -115 80 -11 119 53 71 114 -11 14 -20
21 -20 15 0 -6 5 -14 10 -17 15 -9 12 -81 -4 -94 -25 -21 -77 -9 -99 21 -20
27 -20 29 -4 63 19 39 7 47 -17 13z"/>
<path d="M3108 153 c12 -2 30 -2 40 0 9 3 -1 5 -23 4 -22 0 -30 -2 -17 -4z"/>
<path d="M1995 103 c15 -24 30 -43 32 -43 7 0 -31 61 -46 73 -8 7 -2 -7 14
-30z"/>
<path d="M3337 103 c10 -18 21 -33 26 -33 14 0 7 17 -19 41 l-26 24 19 -32z"/>
<path d="M210 89 c0 -22 77 -42 175 -45 l100 -2 -90 7 c-55 5 -108 16 -137 29
-27 11 -48 16 -48 11z"/>
<path d="M518 53 c6 -2 18 -2 25 0 6 3 1 5 -13 5 -14 0 -19 -2 -12 -5z"/>
<path d="M907 53 c18 -2 50 -2 70 0 21 2 7 4 -32 4 -38 0 -55 -2 -38 -4z"/>
<path d="M1820 50 l-35 -7 43 -2 c23 0 42 4 42 9 0 6 -3 9 -7 9 -5 -1 -24 -5
-43 -9z"/>
<path d="M2467 13 c18 -2 50 -2 70 0 21 2 7 4 -32 4 -38 0 -55 -2 -38 -4z"/>
</g>
</svg>
