<svg xmlns="http://www.w3.org/2000/svg" width="375" height="188" viewBox="0 0 375 188" version="1.1"><path d="M 155.338 26.999 C 150.919 28.781, 151.156 36, 155.633 36 C 159.952 36, 162 34.254, 162 30.572 C 162 26.293, 159.892 25.162, 155.338 26.999 M 214.197 30.559 C 208.091 32.202, 205 33.685, 205 34.970 C 205 35.465, 205.456 37.070, 206.014 38.537 C 206.777 40.545, 207.457 41.021, 208.764 40.467 C 215.568 37.581, 218.180 37.026, 220.106 38.057 C 221.384 38.741, 222.008 39.934, 221.811 41.318 C 221.551 43.139, 220.673 43.590, 216.500 44.044 C 209.667 44.789, 205.398 47.300, 203.010 51.981 C 196.719 64.312, 207.657 73.352, 219.488 65.600 C 220.761 64.766, 222.113 64.506, 222.615 64.999 C 223.102 65.476, 225.075 65.541, 227 65.143 L 230.500 64.420 230.775 48.711 L 231.051 33.001 227.775 31.004 C 223.965 28.682, 221.476 28.600, 214.197 30.559 M 173 32.413 C 170.403 33.343, 169.421 34.328, 169.193 36.231 C 169.010 37.766, 168.106 39, 166.943 39.305 C 164.114 40.044, 164.165 46, 167 46 C 168.893 46, 169 46.667, 169 58.427 C 169 70.686, 169.036 70.883, 171.655 72.944 C 173.721 74.568, 175.110 74.888, 177.905 74.385 C 183.522 73.372, 185 72.244, 185 68.965 C 185 66.337, 184.659 66, 182 66 L 179 66 179 55.125 L 179 44.250 182.064 43.637 C 184.822 43.086, 185.097 42.698, 184.814 39.762 C 184.536 36.876, 184.192 36.536, 181.822 36.812 C 179.556 37.076, 179.095 36.704, 178.822 34.389 C 178.433 31.085, 177.550 30.785, 173 32.413 M 155.750 41.162 L 153 42.167 153 60.058 L 153 77.950 156.250 77.388 C 158.037 77.080, 160.063 76.655, 160.750 76.445 C 161.690 76.158, 162 71.586, 162 58.031 C 162 38.175, 162.230 38.796, 155.750 41.162 M 141 43.882 L 137.500 44.500 137.222 58.149 L 136.945 71.798 133.571 73.399 C 129.439 75.360, 129.503 75.360, 127.571 73.429 C 126.305 72.162, 126 69.348, 126 58.929 C 126 51.818, 125.662 46.003, 125.250 46.006 C 124.838 46.009, 122.813 46.480, 120.750 47.053 L 117 48.094 117 63.373 C 117 78.050, 117.091 78.737, 119.314 80.826 C 122.141 83.481, 127.516 83.689, 132.782 81.346 C 134.827 80.437, 137.135 79.798, 137.912 79.927 C 138.688 80.056, 140.826 79.880, 142.662 79.536 L 146 78.909 146 60.955 C 146 51.080, 145.662 43.059, 145.250 43.132 C 144.838 43.204, 142.925 43.542, 141 43.882 M 109.736 49.088 C 108.766 49.652, 105.669 50.271, 102.854 50.463 C 100.010 50.656, 97.350 51.408, 96.869 52.156 C 96.393 52.895, 96.116 60.925, 96.252 70 C 96.500 86.479, 96.503 86.500, 98.852 86.833 C 100.145 87.016, 102.270 86.898, 103.574 86.571 C 105.904 85.986, 105.948 85.750, 106.222 72.326 L 106.500 58.676 110 57.504 C 113.166 56.445, 113.529 55.936, 113.807 52.166 C 114.131 47.777, 113.199 47.072, 109.736 49.088 M 216.500 49.945 C 210.460 52.417, 209.175 60, 214.797 60 C 219.401 60, 222 57.454, 222 52.943 C 222 48.766, 220.877 48.154, 216.500 49.945 M 16.500 51.460 C 15.950 51.681, 12.238 52.384, 8.250 53.022 L 1 54.181 1 79.670 L 1 105.159 4.250 104.505 C 11.301 103.086, 10.907 103.736, 11.216 93.015 L 11.500 83.143 17.971 91.688 L 24.442 100.234 29.826 99.678 C 32.788 99.373, 35.442 98.892, 35.724 98.609 C 36.007 98.327, 32.334 93.349, 27.563 87.548 C 21.604 80.303, 19.423 77, 20.599 77 C 23.705 77, 28.775 72.156, 30.559 67.484 C 33.752 59.123, 29.808 52.296, 21.288 51.438 C 19.205 51.229, 17.050 51.238, 16.500 51.460 M 77.014 55.244 C 65.902 61.195, 63.182 81.492, 72.514 88.832 C 76.073 91.632, 82 91.662, 87.684 88.911 C 92.209 86.720, 93.003 84.743, 90.920 80.851 C 89.951 79.040, 89.670 78.988, 88.170 80.339 C 85.130 83.079, 81.387 83.387, 79.087 81.087 C 77.472 79.472, 77 77.743, 77 73.450 C 77 64.146, 80.079 60.452, 87.230 61.177 C 90.084 61.466, 90.522 61.153, 91.361 58.233 C 91.877 56.436, 92.017 54.683, 91.672 54.338 C 91.326 53.993, 88.897 53.515, 86.272 53.276 C 82.572 52.939, 80.493 53.381, 77.014 55.244 M 45.030 60.583 C 37.374 63.904, 33.641 70.265, 33.636 80 C 33.629 94.332, 41.333 99.524, 55.997 95.070 L 63.137 92.901 62.452 89.700 C 62.075 87.940, 61.637 86.355, 61.478 86.178 C 61.319 86.001, 59.106 86.564, 56.560 87.428 C 50.592 89.454, 49.796 89.414, 46.635 86.927 C 42.137 83.389, 43.233 82.440, 54 80.549 L 64 78.792 64 74.416 C 64 61.959, 55.742 55.937, 45.030 60.583 M 11 66.930 L 11 73.860 14.250 72.944 C 18.119 71.853, 21 68.664, 21 65.471 C 21 60.957, 20.020 60, 15.393 60 L 11 60 11 66.930 M 46.593 68.250 C 43.598 70.926, 41.777 76.683, 44.222 75.745 C 45.059 75.424, 47.861 74.843, 50.449 74.455 C 54.914 73.786, 55.120 73.616, 54.497 71.131 C 53.106 65.591, 50.594 64.675, 46.593 68.250 M 253.250 67.662 C 249.861 68.862, 249 69.649, 249 71.548 C 249 72.906, 248.140 74.390, 247 75 C 245.669 75.712, 245 77.094, 245 79.129 C 245 81.346, 245.550 82.331, 247 82.710 C 248.837 83.191, 249 84.074, 249 93.552 C 249 109.640, 250.936 112.323, 260.530 109.534 C 266.141 107.903, 267.750 105.790, 266.779 101.329 C 266.372 99.456, 265.804 99.344, 262.750 100.533 C 261.151 101.155, 261 100.303, 261 90.626 C 261 80.156, 261.028 80.031, 263.509 79.408 C 266.155 78.744, 267.694 75.251, 266.599 72.396 C 266.159 71.251, 265.265 70.968, 263.491 71.413 C 261.248 71.976, 261 71.737, 261 69.019 C 261 65.529, 259.846 65.327, 253.250 67.662 M 166.280 77.826 C 160.065 80.351, 159.795 80.864, 160.167 89.437 C 160.468 96.378, 160.331 97.063, 158.726 96.641 C 152.698 95.056, 144.199 102.224, 141.556 111.122 C 139.178 119.131, 139.496 130.578, 142.250 136.038 C 145.906 143.289, 152.335 144.627, 158.164 139.351 C 159.151 138.458, 161.431 137.595, 163.230 137.434 C 165.029 137.273, 167.738 136.670, 169.250 136.095 L 172 135.050 172 105.525 C 172 89.286, 171.662 76.025, 171.250 76.056 C 170.838 76.087, 168.601 76.883, 166.280 77.826 M 230 77.722 C 229.175 78.032, 227.301 79.124, 225.836 80.150 C 223.903 81.502, 223.058 81.675, 222.759 80.778 C 222.440 79.819, 221.239 79.885, 217.424 81.069 L 212.500 82.598 212.228 102.428 L 211.957 122.259 215.084 121.633 C 216.804 121.289, 219.402 120.437, 220.856 119.739 L 223.500 118.470 223.649 104.485 C 223.796 90.778, 223.847 90.472, 226.243 89.083 C 227.587 88.303, 229.432 87.952, 230.343 88.301 C 231.773 88.850, 232 90.794, 232 102.469 C 232 117.560, 231.712 117.066, 239.199 114.822 L 243.130 113.644 242.815 97.424 C 242.538 83.144, 242.272 80.953, 240.595 79.102 C 238.724 77.037, 233.598 76.369, 230 77.722 M 189.459 87.880 C 180.745 91.837, 176.597 100.358, 177.144 113.171 C 177.560 122.902, 179.796 127.117, 185.548 129.016 C 188.505 129.992, 190.129 129.845, 195.781 128.092 C 205.351 125.125, 207.344 123.352, 206.453 118.602 C 205.681 114.485, 206.035 114.524, 197.819 117.652 C 193.292 119.376, 193.070 119.373, 191.069 117.562 C 189.931 116.533, 189 115.189, 189 114.576 C 189 113.964, 193.162 112.316, 198.250 110.914 L 207.500 108.367 207.824 103.433 C 208.262 96.753, 206.578 91.664, 202.905 88.574 C 199.254 85.501, 195.160 85.290, 189.459 87.880 M 189.557 98.223 C 188.701 99.445, 188 101.470, 188 102.723 C 188 105.294, 189.688 105.538, 194.580 103.674 C 197.449 102.581, 197.602 102.277, 196.802 99.250 C 196.133 96.718, 195.410 96, 193.528 96 C 192.166 96, 190.435 96.969, 189.557 98.223 M 128.750 104.830 L 124 106.351 124 122.521 C 124 136.915, 123.799 138.872, 122.171 140.345 C 121.165 141.255, 119.365 142, 118.171 142 C 116.031 142, 116 141.766, 116 125.559 C 116 116.413, 115.584 108.861, 115.063 108.539 C 114.547 108.220, 111.960 108.989, 109.313 110.248 L 104.500 112.536 104.500 131.747 L 104.500 150.958 107.152 153.609 C 109.381 155.836, 110.364 156.154, 113.302 155.603 C 115.225 155.242, 118.307 153.932, 120.149 152.692 C 121.992 151.452, 124.400 150.370, 125.500 150.287 C 126.600 150.204, 129.188 149.425, 131.250 148.555 L 135 146.973 135 125.546 C 135 113.760, 134.662 103.936, 134.250 103.713 C 133.838 103.490, 131.363 103.993, 128.750 104.830 M 62.625 106.469 C 58.416 107.969, 52.959 112.741, 50.004 117.505 C 48.979 119.157, 47.606 123.432, 46.953 127.005 C 44.761 139.007, 48.337 145.376, 58.923 148.319 C 66.132 150.323, 67.689 152.383, 65.958 157.626 C 64.437 162.237, 59.905 164.991, 53.833 164.996 L 49.166 165 48.083 170.049 C 46.369 178.039, 46.350 178.003, 52.250 177.978 C 66.987 177.916, 79 164.167, 79 147.362 C 79 141.276, 78.761 140.561, 75.711 137.511 C 73.479 135.279, 70.395 133.653, 66.117 132.453 C 59.008 130.458, 57.187 128.269, 58.896 123.774 C 60.330 120.001, 64.571 117.561, 69.865 117.461 C 74.774 117.369, 74.779 117.362, 76.390 108.750 L 77.091 105 71.795 105.044 C 68.883 105.068, 64.756 105.709, 62.625 106.469 M 88.750 109.568 C 84.717 111.665, 84 112.483, 84 114.984 C 84 116.932, 83.304 118.302, 81.946 119.029 C 80.285 119.918, 79.950 120.931, 80.196 124.314 C 80.433 127.584, 80.883 128.470, 82.250 128.361 C 83.844 128.235, 84 129.543, 84 143.064 C 84 163.760, 85.637 166.363, 95.882 161.956 L 101 159.754 101 154.939 C 101 150.446, 100.836 150.136, 98.554 150.312 C 97.209 150.415, 96.084 150.162, 96.054 149.750 C 96.024 149.338, 96 143.590, 96 136.979 C 96 125.126, 96.035 124.941, 98.500 123.818 C 100.663 122.833, 101 122.030, 101 117.864 C 101 113.140, 100.949 113.060, 98.236 113.603 C 95.671 114.116, 95.472 113.923, 95.486 110.923 C 95.494 109.145, 95.050 107.557, 94.500 107.394 C 93.950 107.232, 91.362 108.210, 88.750 109.568 M 155.491 109.254 C 153.132 111.284, 152.694 112.544, 152.266 118.551 C 151.844 124.461, 152.067 125.867, 153.760 127.955 C 155.601 130.226, 155.918 130.298, 158 128.916 C 160.082 127.534, 160.250 126.680, 160.250 117.503 C 160.250 111.681, 159.831 107.444, 159.235 107.245 C 158.677 107.059, 156.992 107.963, 155.491 109.254" stroke="none" fill="#ec531c" fill-rule="evenodd"/><path d="M 299.327 30.125 C 279.386 46.968, 275.500 50.678, 275.500 52.875 C 275.500 55.186, 276.696 56.124, 285.500 60.712 C 291 63.578, 296.026 65.941, 296.668 65.962 C 297.490 65.989, 297.787 63.251, 297.668 56.739 C 297.483 46.526, 298.427 44.350, 305.212 39.343 C 317.270 30.447, 339.778 30.578, 348.795 39.595 C 352.199 42.999, 352.224 43.088, 351.535 49.515 C 351.073 53.831, 351.193 56, 351.894 56 C 353.616 56, 373.264 43.528, 374.414 41.706 C 375.230 40.412, 375.017 39.588, 373.486 38.109 C 370.147 34.884, 327.416 10, 325.216 10 C 323.992 10, 313.479 18.172, 299.327 30.125 M 319.398 54.831 C 301.661 60.078, 292.694 72.241, 300.906 79.912 C 310.345 88.730, 336.357 85.552, 347.715 74.194 C 354.401 67.508, 353.844 60.751, 346.238 56.293 C 340.234 52.775, 328.509 52.136, 319.398 54.831" stroke="none" fill="#0473bc" fill-rule="evenodd"/></svg>