<?xml version="1.0" standalone="no"?>
<!DOCTYPE svg PUBLIC "-//W3C//DTD SVG 20010904//EN"
 "http://www.w3.org/TR/2001/REC-SVG-20010904/DTD/svg10.dtd">
<svg version="1.0" xmlns="http://www.w3.org/2000/svg"
 width="225.000000pt" height="225.000000pt" viewBox="0 0 225.000000 225.000000"
 preserveAspectRatio="xMidYMid meet">

<g transform="translate(0.000000,225.000000) scale(0.100000,-0.100000)"
fill="#000000" stroke="none">
<path d="M1710 1452 c-63 -54 -116 -104 -118 -113 -2 -9 15 -23 43 -37 25 -12
48 -22 50 -22 3 0 3 17 -1 38 -7 46 21 86 80 113 55 25 112 24 166 -3 40 -20
45 -27 48 -60 l3 -37 50 31 c27 16 48 35 46 42 -4 12 -226 146 -242 146 -5 -1
-62 -44 -125 -98z"/>
<path d="M961 1457 c-12 -15 -5 -27 16 -27 7 0 13 9 13 20 0 23 -13 26 -29 7z"/>
<path d="M1253 1440 c-37 -15 -26 -29 17 -23 36 5 40 3 40 -16 0 -15 -6 -21
-21 -21 -23 0 -60 -18 -71 -34 -4 -6 -8 -23 -8 -38 0 -35 31 -54 62 -37 12 7
34 12 48 13 24 1 25 4 28 69 2 42 -2 74 -9 83 -13 16 -52 17 -86 4z m57 -105
c0 -31 -34 -52 -56 -34 -18 15 -18 24 2 43 25 25 54 20 54 -9z"/>
<path d="M1043 1423 c-4 -10 -11 -22 -17 -26 -8 -6 -7 -10 2 -14 8 -3 12 -28
12 -73 0 -72 8 -84 49 -73 24 6 28 23 6 23 -12 0 -15 14 -15 65 0 51 3 65 15
65 8 0 15 5 15 10 0 6 -7 10 -15 10 -8 0 -15 7 -15 15 0 21 -29 19 -37 -2z"/>
<path d="M973 1393 c-9 -3 -13 -31 -13 -89 0 -68 3 -84 15 -84 12 0 15 17 15
90 0 50 -1 90 -2 89 -2 0 -9 -3 -15 -6z"/>
<path d="M879 1373 c0 -5 0 -36 1 -70 1 -54 -1 -63 -20 -73 -39 -21 -50 -7
-50 69 0 64 -1 69 -20 64 -17 -5 -20 -14 -20 -72 0 -83 14 -107 56 -97 16 4
41 10 57 13 27 5 27 6 27 89 0 68 -3 84 -15 84 -8 0 -15 -3 -16 -7z"/>
<path d="M725 1346 c-10 -7 -27 -11 -37 -8 -16 4 -18 -3 -18 -82 0 -70 3 -86
15 -86 12 0 15 15 15 71 0 62 3 72 19 76 11 3 22 12 26 20 8 22 2 25 -20 9z"/>
<path d="M213 1333 l-33 -4 0 -125 c0 -114 2 -125 18 -122 13 3 17 14 17 56 0
28 3 52 7 52 4 0 21 -20 39 -45 30 -41 56 -55 72 -39 4 4 -12 29 -36 57 -29
35 -38 52 -28 55 48 16 69 91 32 112 -20 10 -28 10 -88 3z m65 -51 c4 -28 -14
-52 -39 -52 -16 0 -19 8 -19 41 0 38 1 40 28 37 19 -2 28 -9 30 -26z"/>
<path d="M559 1317 c-40 -30 -54 -121 -23 -151 16 -16 50 -21 78 -10 28 11 17
29 -16 29 -25 0 -33 5 -40 27 -13 39 9 82 45 86 36 4 36 32 0 32 -16 0 -35 -6
-44 -13z"/>
<path d="M1810 1321 c-77 -25 -117 -63 -105 -100 21 -67 212 -43 255 32 14 25
13 28 -7 48 -23 24 -99 34 -143 20z"/>
<path d="M395 1288 c-34 -18 -45 -40 -45 -88 0 -54 21 -80 64 -80 30 0 66 16
66 29 0 4 -19 7 -42 7 -33 -1 -43 3 -46 17 -4 18 3 22 61 32 30 5 37 10 37 28
0 54 -48 81 -95 55z m55 -44 c0 -17 -6 -24 -19 -24 -11 0 -26 -3 -35 -6 -23
-9 -20 22 4 46 24 24 50 16 50 -16z"/>
<path d="M1463 1253 c-7 -2 -13 -11 -13 -19 0 -8 -4 -14 -10 -14 -5 0 -10 -7
-10 -15 0 -8 5 -15 10 -15 6 0 10 -28 10 -65 0 -71 9 -83 55 -71 27 7 35 36
10 36 -12 0 -15 13 -15 55 0 40 4 57 15 61 8 4 15 12 15 20 0 8 -6 11 -15 8
-9 -4 -15 0 -15 10 0 16 -13 19 -37 9z"/>
<path d="M1018 1202 c-14 -3 -18 -14 -18 -53 0 -46 -2 -50 -20 -44 -32 10 -77
-42 -85 -99 -11 -68 4 -110 38 -114 16 -2 35 2 43 9 9 7 24 13 35 14 10 1 21
4 24 7 3 3 4 68 3 144 -3 126 -5 139 -20 136z m-20 -203 c-3 -50 -5 -54 -28
-54 -22 0 -25 5 -28 42 -2 32 2 47 18 63 30 30 42 14 38 -51z"/>
<path d="M1338 1196 c-15 -8 -29 -12 -32 -9 -2 3 -14 2 -25 -2 -19 -6 -21 -14
-21 -102 0 -83 2 -94 16 -89 9 3 20 6 25 6 5 0 9 34 9 75 0 62 3 76 19 84 27
15 31 5 31 -71 0 -67 3 -74 34 -62 13 5 16 21 16 76 0 102 -16 123 -72 94z"/>
<path d="M1132 1144 c-52 -36 -70 -136 -32 -174 11 -11 27 -20 35 -20 30 0 85
29 85 44 0 19 -2 19 -34 5 -20 -9 -29 -9 -41 1 -24 20 -13 33 36 45 42 11 44
13 43 48 -2 63 -43 86 -92 51z m52 -41 c8 -20 -1 -30 -36 -38 -30 -8 -35 3
-18 36 13 23 46 25 54 2z"/>
<path d="M823 1063 c-9 -3 -13 -31 -13 -88 0 -86 -12 -114 -45 -101 -12 4 -15
23 -15 86 0 44 -3 80 -7 80 -29 -1 -34 -20 -31 -116 3 -95 4 -99 26 -102 13
-2 34 4 48 12 13 9 24 14 24 11 0 -3 9 -1 20 5 18 10 20 21 20 115 0 58 -3
105 -7 104 -5 0 -14 -3 -20 -6z"/>
<path d="M473 1048 c-26 -13 -63 -83 -63 -119 0 -35 25 -66 59 -74 41 -9 54
-27 42 -57 -10 -25 -62 -55 -79 -44 -5 3 -12 -8 -14 -24 -4 -24 -1 -30 15 -30
79 0 156 109 128 182 -7 18 -23 30 -53 39 -30 10 -44 20 -46 35 -3 24 24 51
58 56 17 2 26 10 28 26 3 18 -1 22 -25 21 -15 0 -38 -5 -50 -11z"/>
<path d="M618 1039 c-10 -5 -18 -19 -18 -29 0 -11 -5 -20 -11 -20 -7 0 -5 -10
5 -25 11 -17 16 -48 16 -105 0 -72 2 -80 19 -80 33 0 51 11 51 31 0 10 -6 18
-12 16 -9 -1 -14 19 -16 71 -2 58 0 73 13 78 8 3 15 15 15 26 0 14 -5 18 -15
14 -10 -4 -15 1 -15 14 0 22 -7 24 -32 9z"/>
</g>
</svg>
