<?xml version="1.0" standalone="no"?>
<!DOCTYPE svg PUBLIC "-//W3C//DTD SVG 20010904//EN"
 "http://www.w3.org/TR/2001/REC-SVG-20010904/DTD/svg10.dtd">
<svg version="1.0" xmlns="http://www.w3.org/2000/svg"
 width="800.000000pt" height="800.000000pt" viewBox="0 0 800.000000 800.000000"
 preserveAspectRatio="xMidYMid meet">

<g transform="translate(0.000000,800.000000) scale(0.100000,-0.100000)"
fill="#000000" stroke="none">
<path d="M10 3995 l0 -3995 3995 0 3995 0 0 3995 0 3995 -3995 0 -3995 0 0
-3995z m6045 3223 c23 -2 35 -12 50 -40 20 -38 55 -52 55 -23 0 43 64 88 74
53 11 -38 21 -140 15 -149 -11 -18 -44 -5 -47 19 -4 29 -18 28 -38 -3 -9 -14
-24 -25 -34 -25 -9 0 -22 11 -28 25 -15 32 -28 32 -36 -1 -5 -17 -12 -24 -24
-22 -14 3 -16 13 -14 57 4 71 -1 83 -30 72 -20 -7 -24 -17 -28 -67 -4 -51 -8
-59 -25 -59 -18 0 -20 8 -23 63 -2 50 -6 62 -20 62 -9 0 -23 4 -31 9 -13 8
-13 12 -1 26 13 16 43 17 185 3z m-1823 -238 c57 0 121 -5 143 -11 22 -6 75
-14 118 -18 53 -5 83 -13 95 -25 16 -16 16 -19 -9 -39 -15 -12 -29 -31 -33
-42 -3 -11 -19 -26 -36 -33 -21 -10 -30 -21 -30 -37 0 -20 14 -30 83 -63 89
-43 121 -70 115 -99 -2 -13 -14 -19 -46 -21 -23 -2 -42 -6 -42 -8 0 -3 9 -17
20 -31 27 -34 25 -47 -10 -105 -16 -26 -30 -55 -30 -63 0 -24 -21 -28 -56 -9
-40 22 -48 57 -11 53 24 -4 47 7 47 21 0 16 -57 40 -95 40 -28 0 -44 -7 -66
-31 l-28 -30 24 -40 c30 -46 29 -43 9 -63 -31 -31 -214 -11 -214 24 0 17 44
40 77 40 43 0 83 16 83 34 0 37 -79 24 -176 -28 -123 -68 -164 -86 -213 -97
-27 -6 -71 -26 -98 -45 -66 -48 -110 -66 -162 -65 -112 1 -241 -140 -292 -319
-11 -36 -19 -77 -19 -92 0 -24 -4 -27 -37 -30 -36 -3 -38 -5 -41 -40 -3 -32 1
-39 27 -52 16 -9 37 -16 45 -16 20 0 50 -46 42 -65 -3 -9 3 -32 14 -53 15 -27
20 -56 20 -112 0 -41 5 -93 11 -115 10 -37 9 -40 -16 -61 -27 -21 -27 -22 -10
-48 15 -22 15 -31 5 -55 -16 -40 -4 -75 67 -187 30 -49 63 -107 73 -129 39
-90 204 -276 279 -314 40 -21 81 -28 81 -13 0 4 -27 40 -60 81 -94 114 -137
202 -170 343 -7 29 -22 69 -34 88 -16 27 -21 51 -20 105 0 78 27 201 56 257
11 20 26 68 34 105 19 91 18 89 57 108 19 9 37 25 40 37 5 16 11 19 34 14 25
-5 33 0 77 56 31 39 56 84 67 120 17 56 17 58 -3 83 -11 15 -18 36 -16 52 3
26 7 28 46 28 33 1 46 5 54 20 20 37 145 151 189 172 68 32 104 37 140 19 29
-14 36 -14 93 4 33 10 90 23 125 28 61 8 64 7 105 -22 33 -25 51 -31 93 -31
46 0 56 4 87 34 20 19 38 43 42 53 3 10 11 18 19 18 13 0 70 -70 110 -137 11
-18 52 -83 91 -145 40 -62 86 -140 103 -174 69 -137 119 -311 102 -355 -5 -15
-5 -32 0 -41 5 -8 15 -59 23 -111 12 -82 12 -110 1 -199 -14 -107 -50 -228
-91 -311 -30 -62 -30 -67 5 -67 21 0 40 13 79 55 28 30 66 60 84 68 46 20 63
43 77 110 13 61 35 83 71 72 38 -12 40 -36 9 -114 -16 -40 -29 -82 -29 -93 0
-21 0 -21 21 -2 12 10 66 81 121 157 55 75 106 137 114 137 28 0 39 -46 26
-118 -15 -87 -36 -130 -140 -286 -76 -114 -94 -134 -152 -171 -73 -47 -129
-92 -210 -169 -126 -120 -305 -264 -397 -320 -99 -59 -182 -83 -349 -101 -82
-8 -207 -22 -279 -30 -71 -8 -175 -18 -230 -21 -91 -6 -107 -4 -179 20 -43 14
-84 26 -92 26 -35 0 -204 66 -247 96 -54 39 -73 44 -57 15 5 -11 10 -27 10
-35 0 -32 -37 -15 -95 44 -41 42 -67 60 -85 60 -42 0 -186 55 -259 99 -72 43
-174 135 -229 207 -32 42 -92 160 -92 181 0 6 -36 51 -81 100 -182 199 -272
383 -305 630 l-17 122 42 84 c32 67 41 96 41 138 1 46 14 107 47 214 13 40 86
171 131 235 64 90 170 199 278 286 92 74 116 88 167 99 16 3 32 16 39 30 11
25 43 47 155 104 34 18 67 39 74 47 14 17 131 74 264 129 125 51 281 126 339
163 l49 31 38 -19 c30 -16 59 -20 141 -20z m708 -96 c87 -18 161 -52 210 -98
19 -18 60 -46 90 -62 71 -37 165 -106 201 -147 38 -42 79 -124 79 -158 0 -15
-8 -37 -19 -50 l-19 -23 -40 28 c-22 15 -102 87 -177 159 -76 73 -164 151
-197 174 -68 47 -174 93 -218 93 -16 0 -56 14 -87 31 -75 40 -83 47 -76 66 5
13 20 14 92 8 47 -3 120 -13 161 -21z m-8 -217 c15 -7 59 -40 98 -75 62 -56
70 -67 70 -100 1 -20 9 -55 20 -77 23 -48 25 -78 6 -94 -11 -9 -32 9 -108 91
-146 160 -158 176 -158 208 0 60 17 71 72 47z m-1882 -16 c9 -17 -3 -29 -103
-99 -101 -72 -225 -183 -284 -255 -96 -115 -167 -258 -196 -393 -17 -79 -108
-289 -137 -319 -19 -18 -21 -19 -37 -2 -28 28 -23 232 7 324 145 439 314 632
650 744 71 23 87 23 100 0z m2417 -413 c29 -27 33 -105 6 -115 -32 -13 -95 82
-79 122 8 22 46 18 73 -7z m-1738 -137 c20 -13 16 -70 -7 -100 -20 -28 -67
-40 -85 -22 -8 8 -5 19 10 38 11 16 27 43 37 61 18 34 23 37 45 23z m1834
-430 c46 -49 67 -87 93 -171 18 -59 18 -183 0 -218 -21 -39 -82 -96 -98 -89
-26 9 -46 100 -89 393 -22 145 10 174 94 85z m-1020 -2246 c78 -20 137 -52
137 -73 0 -16 -49 -93 -85 -132 -15 -17 -18 -17 -55 1 -56 27 -138 25 -180 -4
-54 -35 -75 -81 -74 -158 0 -88 38 -145 119 -176 45 -17 74 -15 137 11 31 13
60 20 65 17 5 -3 25 -35 45 -71 41 -73 39 -85 -22 -113 -163 -77 -324 -59
-447 48 -156 137 -164 399 -16 551 91 94 242 134 376 99z m739 -23 c64 -29
136 -96 170 -157 94 -170 41 -400 -116 -499 -207 -131 -482 -58 -573 154 -56
131 -27 316 65 413 53 57 143 105 222 121 60 11 170 -4 232 -32z m-2011 8 c16
-9 19 -22 19 -73 0 -34 -4 -68 -9 -76 -7 -10 -33 -15 -93 -16 -45 -1 -86 -3
-90 -4 -5 0 -8 -117 -8 -260 0 -209 -3 -261 -14 -270 -9 -8 -46 -11 -103 -9
l-88 3 -3 265 c-2 186 -6 266 -14 271 -6 4 -41 6 -77 4 -35 -2 -75 1 -88 6
-21 8 -23 15 -23 78 0 56 3 72 18 80 23 14 547 14 573 1z m457 -8 c9 -9 66
-134 126 -277 120 -286 152 -362 166 -387 17 -30 -12 -39 -111 -36 -104 3 -92
-6 -141 103 l-23 50 -109 3 c-72 2 -113 -1 -122 -9 -16 -13 -54 -94 -54 -115
0 -23 -36 -34 -113 -34 -96 0 -103 8 -69 80 14 30 31 69 37 85 7 17 26 62 43
100 17 39 43 99 57 135 27 65 47 110 91 208 13 29 24 57 24 62 0 6 9 19 20 30
28 28 151 29 178 2z m1782 -886 c316 -15 315 -31 -5 -47 -230 -11 -1844 -18
-2395 -10 -352 5 -652 19 -663 30 -15 15 136 22 598 30 509 8 2266 6 2465 -3z
m401 -230 c159 -49 254 -168 273 -346 4 -42 -17 -151 -39 -196 -29 -61 -104
-133 -174 -166 -61 -29 -74 -32 -171 -32 -97 0 -110 3 -171 31 -132 63 -209
189 -209 343 0 216 161 376 380 379 36 0 86 -6 111 -13z m-1938 -18 c22 -21
165 -178 248 -272 80 -92 73 -100 79 101 l5 178 90 0 90 0 3 -347 2 -347 -56
-17 c-46 -13 -60 -14 -78 -4 -11 7 -93 92 -181 188 l-160 175 -5 -179 -5 -179
-90 0 -90 0 -3 344 c-1 190 1 348 6 353 7 7 74 24 109 27 7 1 23 -9 36 -21z
m1089 -5 c76 -22 117 -46 165 -93 142 -142 132 -392 -20 -525 -28 -25 -59 -45
-69 -45 -9 0 -19 -4 -22 -9 -4 -5 -49 -17 -102 -27 -106 -18 -304 -16 -343 5
-21 12 -21 17 -21 356 l0 345 23 5 c81 18 312 11 389 -12z m-2788 -6 c8 -12
28 -54 44 -93 28 -67 41 -98 83 -189 10 -22 23 -53 29 -70 l12 -30 19 24 c10
13 19 31 19 40 0 9 4 21 9 27 4 5 34 71 66 147 32 76 64 145 72 153 19 18 146
20 160 2 5 -7 15 -51 22 -98 7 -47 19 -123 26 -170 8 -47 19 -123 25 -170 7
-47 18 -120 26 -162 7 -43 11 -84 8 -93 -5 -12 -24 -15 -93 -15 -47 0 -92 4
-99 8 -12 8 -25 90 -39 240 -3 40 -9 75 -13 77 -9 6 -33 -43 -102 -210 -46
-111 -50 -115 -111 -115 -29 0 -60 6 -69 13 -8 6 -30 48 -48 92 -49 119 -100
228 -105 223 -4 -4 -19 -119 -32 -248 -3 -30 -10 -61 -15 -67 -13 -16 -154
-18 -163 -2 -4 5 -2 49 5 97 14 106 57 387 70 461 6 30 10 65 10 77 0 12 4 34
10 48 9 25 13 26 85 26 66 0 76 -2 89 -23z m926 -222 c5 -264 10 -284 68 -306
37 -15 118 -6 141 15 31 29 43 123 40 327 -2 124 0 192 7 199 7 7 46 10 100 8
l89 -3 3 -230 c4 -286 0 -321 -42 -382 -25 -37 -48 -56 -102 -83 -67 -33 -73
-34 -184 -34 -105 0 -120 2 -175 28 -69 33 -99 62 -129 126 -19 41 -21 66 -24
298 -3 191 -1 256 9 268 9 11 32 14 103 12 l91 -3 5 -240z m1820 -860 c10 -13
10 -36 -4 -123 -9 -59 -21 -138 -27 -177 -16 -104 -22 -115 -64 -115 -46 0
-51 15 -37 104 6 39 18 123 28 186 11 75 22 119 32 128 21 17 57 15 72 -3z
m-3013 -35 c6 -14 20 -62 29 -107 10 -46 20 -83 23 -83 15 1 30 21 65 90 57
110 73 130 105 130 49 0 52 -12 49 -216 l-3 -189 -33 -3 c-52 -5 -62 10 -62
94 0 40 -4 75 -9 78 -5 3 -24 -22 -41 -57 -46 -87 -68 -117 -90 -117 -30 0
-44 22 -58 91 -21 97 -21 97 -38 74 -8 -11 -19 -38 -24 -60 -6 -22 -17 -55
-25 -72 -13 -28 -20 -33 -50 -33 -48 0 -52 16 -25 103 37 117 89 266 100 288
16 29 70 23 87 -11z m1072 8 c10 -28 4 -52 -20 -74 -17 -15 -18 -19 -4 -34 12
-13 13 -27 5 -71 -5 -30 -14 -83 -19 -117 -12 -75 -23 -92 -62 -92 -49 0 -50
18 -13 238 6 37 11 44 35 49 l29 5 -25 20 c-46 36 -26 98 31 98 27 0 37 -5 43
-22z m1343 6 c55 -22 105 -68 119 -112 16 -50 4 -146 -23 -185 -52 -74 -105
-96 -229 -97 -127 0 -134 5 -120 90 5 36 18 115 27 175 9 61 21 118 26 128 12
23 140 24 200 1z m756 4 c18 -18 15 -52 -7 -76 -24 -28 -48 -28 -72 1 -23 27
-23 37 -3 65 17 24 62 30 82 10z m-2620 -112 c81 -42 53 -128 -55 -171 -53
-21 -57 -45 -9 -45 19 0 38 5 41 10 3 6 15 10 26 10 16 0 20 -6 17 -27 -4 -39
-56 -67 -122 -65 -43 1 -55 5 -78 31 -104 116 45 327 180 257z m247 -23 c26
29 61 35 88 15 15 -12 13 -18 -29 -71 l-46 -58 31 -59 c29 -53 30 -60 15 -74
-8 -9 -28 -16 -44 -16 -23 0 -33 7 -45 30 -9 17 -19 30 -24 30 -4 0 -20 -14
-35 -31 -21 -24 -34 -30 -59 -27 -46 4 -44 27 8 90 25 30 45 58 45 62 0 3 -11
24 -25 46 -34 54 -32 75 8 87 29 10 34 8 60 -21 l28 -31 24 28z m510 21 c30
-19 32 -45 6 -68 -12 -11 -27 -15 -44 -11 -35 9 -67 -24 -67 -69 0 -44 22 -63
56 -47 32 14 41 9 46 -29 6 -39 -27 -62 -93 -63 -150 -2 -160 211 -14 291 29
17 82 14 110 -4z m311 1 c28 -11 35 -19 30 -32 -14 -36 -19 -169 -7 -191 28
-52 -45 -85 -103 -47 -21 14 -24 14 -36 0 -15 -18 -88 -20 -111 -2 -57 44 -50
159 15 228 54 56 140 74 212 44z m349 -11 c30 -28 30 -40 5 -184 -13 -75 -23
-90 -60 -90 -45 0 -51 16 -36 108 7 45 10 84 8 87 -3 3 -13 5 -23 5 -26 0 -46
-37 -54 -100 -9 -73 -27 -100 -66 -100 -17 0 -32 6 -35 15 -12 29 18 249 34
263 21 16 52 15 73 -4 15 -14 20 -13 50 5 45 28 70 26 104 -5z m834 11 c31
-16 41 -33 41 -72 0 -29 -61 -93 -88 -93 -24 0 -64 -29 -57 -41 8 -13 49 -11
80 3 55 25 59 -39 3 -68 -37 -19 -110 -22 -141 -5 -72 39 -77 162 -9 235 50
53 117 69 171 41z m687 -16 c3 -5 -20 -55 -50 -111 -31 -55 -56 -103 -56 -106
0 -3 -10 -16 -22 -29 -24 -26 -69 -30 -88 -9 -14 17 -62 244 -55 257 7 10 74
23 82 16 3 -4 11 -30 17 -59 7 -28 17 -53 22 -55 6 -2 19 16 29 39 10 24 27
53 38 65 16 18 23 20 48 11 16 -5 32 -14 35 -19z m233 16 c32 -16 41 -33 41
-75 0 -31 -58 -90 -88 -90 -24 0 -64 -29 -57 -41 8 -12 72 -12 80 1 3 6 15 10
26 10 16 0 20 -6 17 -27 -4 -37 -55 -65 -119 -66 -43 -1 -54 3 -82 31 -29 30
-32 38 -32 97 0 56 4 68 31 102 53 66 125 89 183 58z m299 -17 c4 -35 -14 -68
-36 -68 -34 0 -72 -53 -85 -118 -15 -74 -24 -84 -68 -80 -33 3 -34 5 -33 43 1
22 7 84 15 137 12 95 13 97 41 103 19 5 37 1 54 -9 23 -16 26 -15 46 4 31 28
62 23 66 -12z m-862 8 c7 -18 -25 -234 -38 -258 -11 -22 -76 -25 -84 -4 -7 18
23 232 36 257 13 23 78 27 86 5z m1000 -40 c18 -72 29 -76 53 -21 12 26 21 51
21 56 0 13 39 21 70 14 17 -4 30 -12 30 -18 0 -13 -123 -256 -156 -309 -36
-56 -84 -88 -132 -88 -36 0 -42 3 -48 24 -8 32 2 46 31 46 27 0 49 19 70 60
13 25 12 38 -15 145 -17 64 -30 119 -30 121 0 9 46 23 69 21 21 -2 27 -10 37
-51z"/>
<path d="M4026 4631 c-4 -5 -4 -15 -1 -23 7 -17 111 -62 124 -53 15 9 14 58
-1 73 -14 14 -114 16 -122 3z"/>
<path d="M5050 3243 c-23 -9 -60 -45 -76 -75 -17 -33 -18 -147 -2 -185 34 -79
81 -113 155 -113 78 0 118 36 138 125 21 93 -12 193 -79 234 -32 20 -100 27
-136 14z"/>
<path d="M3593 3075 c-17 -41 -28 -77 -25 -80 3 -3 32 -5 64 -5 49 0 58 3 58
18 0 21 -50 142 -59 142 -4 0 -21 -34 -38 -75z"/>
<path d="M5713 2090 c-48 -29 -67 -73 -67 -155 0 -118 55 -192 151 -203 85 -9
145 45 158 143 12 92 -24 182 -87 218 -40 23 -115 22 -155 -3z"/>
<path d="M4860 1921 l0 -201 46 0 c73 0 122 19 159 63 60 70 57 190 -7 263
-36 40 -79 61 -149 70 l-49 7 0 -202z"/>
<path d="M4316 1072 c-10 -17 -36 -201 -30 -216 8 -20 31 -20 76 -1 65 26 92
97 62 160 -21 45 -92 82 -108 57z"/>
<path d="M2471 971 c-25 -25 -27 -51 -6 -51 8 0 24 9 36 21 11 11 19 25 17 32
-7 20 -26 19 -47 -2z"/>
<path d="M3490 952 c-25 -25 -31 -39 -28 -64 2 -24 8 -34 23 -36 31 -4 46 11
56 58 8 35 7 46 -5 58 -13 13 -18 11 -46 -16z"/>
<path d="M4722 972 c-20 -17 -31 -52 -17 -52 21 0 66 34 63 47 -5 24 -22 26
-46 5z"/>
<path d="M5637 970 c-36 -43 -11 -67 34 -32 14 12 20 25 16 35 -9 23 -29 21
-50 -3z"/>
</g>
</svg>
